# xmcd
#
# Track frame offsets:
# 225
# 24161
# 43993
# 67860
# 87224
# 109893
# 130399
# 154555
# 179511
# 202750
#
# Disc length: 3054 seconds
#
# Revision: 1
# Processed by: cddbd v1.5.2PL0 Copyright (c) Steve Scherf et al.
# Submitted via: CedeCatalogueitor 2.6.0.6 http://personales.ya.com/cdcatalogueitor
#
DISCID=7c0beb0a
DTITLE=Javier Apoita - Tan Solo Yo
DYEAR=2001
DGENRE=
TTITLE0=Tan Solo Yo
TTITLE1=Ayer Y Hoy
TTITLE2=A Solas
TTITLE3=Dejame
TTITLE4=Muda Ciudad
TTITLE5=Mas Nada
TTITLE6=Soportar
TTITLE7=Decir Adios
TTITLE8=Otra Cancion
TTITLE9=A Lo Mejor
EXTD=
EXTT0=
EXTT1=
EXTT2=
EXTT3=
EXTT4=
EXTT5=
EXTT6=
EXTT7=
EXTT8=
EXTT9=
PLAYORDER=
